# xmcd
#
# Track frame offsets: 
#        150
#        26812
#        40951
#        56451
#        71441
#        85915
#        99002
#        119891
#        131902
#        143796
#        157040
#        168239
#
# Disc length: 2393 seconds
#
# Revision: 0
# Processed by: cddbd v1.5.2PL0 Copyright (c) Steve Scherf et al.
# Submitted via: ExactAudioCopy v0.95b4
#
DISCID=a609570c
DTITLE=Cody McGuire - Blue Ridge Banjo
DYEAR=2000
DGENRE=Bluegrass
TTITLE0=John Henry
TTITLE1=Cowboys and Indians
TTITLE2=I'll Fly Away
TTITLE3=Red Haired Boy
TTITLE4=Down Yonder
TTITLE5=John Hardy
TTITLE6=Eager and Anxious
TTITLE7=Cripple Creek
TTITLE8=Salt Creek
TTITLE9=Flint Hill Special
TTITLE10=You are My Sunshine
TTITLE11=Foggy Mountain Breakdown
EXTD=
EXTT0=
EXTT1=
EXTT2=
EXTT3=
EXTT4=
EXTT5=
EXTT6=
EXTT7=
EXTT8=
EXTT9=
EXTT10=
EXTT11=
PLAYORDER=
